<svg xmlns="http://www.w3.org/2000/svg" viewBox="0 0 600 400">
  <defs>
    <linearGradient id="gaamma-grad" x1="0%" y1="0%" x2="100%" y2="100%">
      <stop offset="0%" style="stop-color:#ff6b5c"/>
      <stop offset="100%" style="stop-color:#eb1600"/>
    </linearGradient>
  </defs>

  <!-- Main dashboard container -->
  <g transform="translate(80, 40)">
    <rect x="0" y="0" width="440" height="320" rx="12" fill="white" opacity="0.07"/>
    <rect x="0" y="0" width="440" height="320" rx="12" stroke="white" stroke-width="1" fill="none" opacity="0.2"/>

    <!-- Sidebar -->
    <rect x="0" y="0" width="70" height="320" rx="12" fill="white" opacity="0.05"/>
    <line x1="70" y1="20" x2="70" y2="300" stroke="white" stroke-width="1" opacity="0.1"/>

    <!-- Sidebar logo area -->
    <rect x="15" y="16" width="40" height="24" rx="4" fill="url(#gaamma-grad)" opacity="0.8"/>
    <rect x="20" y="22" width="12" height="12" rx="2" fill="white" opacity="0.9"/>
    <rect x="35" y="22" width="15" height="5" rx="1" fill="white" opacity="0.7"/>
    <rect x="35" y="29" width="10" height="3" rx="1" fill="white" opacity="0.5"/>

    <!-- Sidebar nav items -->
    <g transform="translate(12, 60)">
      <!-- Dashboard - active -->
      <rect x="0" y="0" width="46" height="32" rx="6" fill="url(#gaamma-grad)" opacity="0.7"/>
      <rect x="12" y="8" width="16" height="16" rx="3" fill="white" opacity="0.9"/>
      <rect x="16" y="12" width="8" height="8" rx="1" fill="url(#gaamma-grad)" opacity="0.8"/>

      <!-- Roll View -->
      <g transform="translate(0, 42)" opacity="0.4">
        <circle cx="23" cy="16" r="8" stroke="white" stroke-width="1.5" fill="none"/>
        <circle cx="23" cy="16" r="3" fill="white"/>
      </g>

      <!-- Batch View -->
      <g transform="translate(0, 84)" opacity="0.4">
        <rect x="11" y="8" width="24" height="16" rx="2" stroke="white" stroke-width="1.5" fill="none"/>
        <line x1="11" y1="14" x2="35" y2="14" stroke="white" stroke-width="1"/>
      </g>

      <!-- Department -->
      <g transform="translate(0, 126)" opacity="0.4">
        <rect x="11" y="6" width="10" height="8" rx="1" fill="white"/>
        <rect x="11" y="16" width="10" height="8" rx="1" fill="white"/>
        <rect x="25" y="6" width="10" height="8" rx="1" fill="white"/>
        <rect x="25" y="16" width="10" height="8" rx="1" fill="white"/>
      </g>

      <!-- Inventory -->
      <g transform="translate(0, 168)" opacity="0.4">
        <rect x="11" y="6" width="24" height="20" rx="2" stroke="white" stroke-width="1.5" fill="none"/>
        <line x1="15" y1="12" x2="31" y2="12" stroke="white" stroke-width="1"/>
        <line x1="15" y1="17" x2="27" y2="17" stroke="white" stroke-width="1"/>
        <line x1="15" y1="22" x2="23" y2="22" stroke="white" stroke-width="1"/>
      </g>

      <!-- Settings -->
      <g transform="translate(0, 210)" opacity="0.3">
        <circle cx="23" cy="16" r="8" stroke="white" stroke-width="1.5" fill="none"/>
        <circle cx="23" cy="16" r="3" fill="white"/>
        <line x1="23" y1="5" x2="23" y2="8" stroke="white" stroke-width="1.5"/>
        <line x1="23" y1="24" x2="23" y2="27" stroke="white" stroke-width="1.5"/>
        <line x1="12" y1="16" x2="15" y2="16" stroke="white" stroke-width="1.5"/>
        <line x1="31" y1="16" x2="34" y2="16" stroke="white" stroke-width="1.5"/>
      </g>
    </g>

    <!-- Header area -->
    <g transform="translate(85, 16)">
      <rect x="0" y="0" width="120" height="8" rx="2" fill="white" opacity="0.5"/>
      <rect x="0" y="14" width="200" height="5" rx="1" fill="white" opacity="0.25"/>

      <!-- Search bar -->
      <rect x="230" y="0" width="100" height="26" rx="6" fill="white" opacity="0.08"/>
      <rect x="230" y="0" width="100" height="26" rx="6" stroke="white" stroke-width="1" fill="none" opacity="0.15"/>
      <circle cx="248" cy="13" r="6" stroke="white" stroke-width="1.5" fill="none" opacity="0.4"/>
      <line x1="252" y1="17" x2="256" y2="21" stroke="white" stroke-width="1.5" opacity="0.4"/>
      <rect x="264" y="10" width="50" height="4" rx="1" fill="white" opacity="0.2"/>

      <!-- User avatar -->
      <circle cx="345" cy="13" r="12" fill="white" opacity="0.15"/>
      <circle cx="345" cy="10" r="5" fill="white" opacity="0.5"/>
      <path d="M337 20 Q345 16 353 20" fill="white" opacity="0.5"/>
    </g>

    <!-- Stat Cards Row -->
    <g transform="translate(85, 55)">
      <!-- Card 1: Total Batches -->
      <rect x="0" y="0" width="82" height="60" rx="8" fill="white" opacity="0.06"/>
      <rect x="0" y="0" width="82" height="60" rx="8" stroke="white" stroke-width="1" fill="none" opacity="0.12"/>
      <rect x="10" y="10" width="40" height="5" rx="1" fill="white" opacity="0.35"/>
      <text x="10" y="42" fill="white" opacity="0.9" font-size="20" font-weight="600" font-family="system-ui">2</text>
      <rect x="55" y="35" width="18" height="18" rx="4" fill="url(#gaamma-grad)" opacity="0.3"/>
      <rect x="60" y="40" width="8" height="8" rx="1" fill="white" opacity="0.6"/>

      <!-- Card 2: Active Rolls -->
      <g transform="translate(90, 0)">
        <rect x="0" y="0" width="82" height="60" rx="8" fill="white" opacity="0.06"/>
        <rect x="0" y="0" width="82" height="60" rx="8" stroke="white" stroke-width="1" fill="none" opacity="0.12"/>
        <rect x="10" y="10" width="45" height="5" rx="1" fill="white" opacity="0.35"/>
        <text x="10" y="42" fill="white" opacity="0.9" font-size="20" font-weight="600" font-family="system-ui">16</text>
        <rect x="55" y="35" width="18" height="18" rx="4" fill="url(#gaamma-grad)" opacity="0.3"/>
        <circle cx="64" cy="44" r="5" stroke="white" stroke-width="1.5" fill="none" opacity="0.6"/>
      </g>

      <!-- Card 3: Departments -->
      <g transform="translate(180, 0)">
        <rect x="0" y="0" width="82" height="60" rx="8" fill="white" opacity="0.06"/>
        <rect x="0" y="0" width="82" height="60" rx="8" stroke="white" stroke-width="1" fill="none" opacity="0.12"/>
        <rect x="10" y="10" width="50" height="5" rx="1" fill="white" opacity="0.35"/>
        <text x="10" y="42" fill="white" opacity="0.9" font-size="20" font-weight="600" font-family="system-ui">2</text>
        <rect x="55" y="35" width="18" height="18" rx="4" fill="url(#gaamma-grad)" opacity="0.3"/>
        <rect x="58" y="39" width="5" height="5" rx="1" fill="white" opacity="0.6"/>
        <rect x="65" y="39" width="5" height="5" rx="1" fill="white" opacity="0.6"/>
        <rect x="58" y="46" width="5" height="5" rx="1" fill="white" opacity="0.6"/>
        <rect x="65" y="46" width="5" height="5" rx="1" fill="white" opacity="0.6"/>
      </g>

      <!-- Card 4: Workers -->
      <g transform="translate(270, 0)">
        <rect x="0" y="0" width="82" height="60" rx="8" fill="white" opacity="0.06"/>
        <rect x="0" y="0" width="82" height="60" rx="8" stroke="white" stroke-width="1" fill="none" opacity="0.12"/>
        <rect x="10" y="10" width="35" height="5" rx="1" fill="white" opacity="0.35"/>
        <text x="10" y="42" fill="white" opacity="0.9" font-size="20" font-weight="600" font-family="system-ui">2</text>
        <rect x="55" y="35" width="18" height="18" rx="4" fill="url(#gaamma-grad)" opacity="0.3"/>
        <circle cx="61" cy="41" r="3" fill="white" opacity="0.6"/>
        <circle cx="67" cy="41" r="3" fill="white" opacity="0.6"/>
        <path d="M57 49 Q61 46 65 49" fill="white" opacity="0.5"/>
        <path d="M63 49 Q67 46 71 49" fill="white" opacity="0.5"/>
      </g>
    </g>

    <!-- Recent Activity Section -->
    <g transform="translate(85, 130)">
      <rect x="0" y="0" width="220" height="175" rx="8" fill="white" opacity="0.05"/>
      <rect x="0" y="0" width="220" height="175" rx="8" stroke="white" stroke-width="1" fill="none" opacity="0.1"/>

      <!-- Header -->
      <rect x="12" y="12" width="80" height="6" rx="2" fill="white" opacity="0.5"/>
      <circle cx="195" cy="15" r="4" fill="#4ade80" opacity="0.8"/>
      <rect x="160" y="12" width="25" height="6" rx="2" fill="white" opacity="0.3"/>

      <!-- Activity items -->
      <g transform="translate(12, 35)">
        <!-- Item 1 -->
        <circle cx="10" cy="10" r="10" fill="url(#gaamma-grad)" opacity="0.4"/>
        <rect x="6" y="6" width="8" height="8" rx="1" fill="white" opacity="0.7"/>
        <rect x="28" y="4" width="70" height="5" rx="1" fill="white" opacity="0.5"/>
        <rect x="28" y="12" width="120" height="4" rx="1" fill="white" opacity="0.25"/>
        <rect x="170" y="6" width="35" height="12" rx="4" fill="#4ade80" opacity="0.3"/>
        <rect x="175" y="10" width="25" height="4" rx="1" fill="#4ade80" opacity="0.6"/>
      </g>

      <g transform="translate(12, 70)">
        <!-- Item 2 -->
        <circle cx="10" cy="10" r="10" fill="url(#gaamma-grad)" opacity="0.3"/>
        <rect x="6" y="6" width="8" height="8" rx="1" fill="white" opacity="0.6"/>
        <rect x="28" y="4" width="80" height="5" rx="1" fill="white" opacity="0.45"/>
        <rect x="28" y="12" width="150" height="4" rx="1" fill="white" opacity="0.2"/>
        <rect x="170" y="6" width="35" height="12" rx="4" fill="#4ade80" opacity="0.3"/>
      </g>

      <g transform="translate(12, 105)">
        <!-- Item 3 -->
        <circle cx="10" cy="10" r="10" fill="url(#gaamma-grad)" opacity="0.25"/>
        <rect x="6" y="6" width="8" height="8" rx="1" fill="white" opacity="0.5"/>
        <rect x="28" y="4" width="75" height="5" rx="1" fill="white" opacity="0.4"/>
        <rect x="28" y="12" width="140" height="4" rx="1" fill="white" opacity="0.18"/>
        <rect x="170" y="6" width="35" height="12" rx="4" fill="#4ade80" opacity="0.25"/>
      </g>

      <!-- View All link -->
      <rect x="12" y="150" width="45" height="5" rx="1" fill="url(#gaamma-grad)" opacity="0.6"/>
    </g>

    <!-- Quick Actions Section -->
    <g transform="translate(315, 130)">
      <rect x="0" y="0" width="110" height="175" rx="8" fill="white" opacity="0.05"/>
      <rect x="0" y="0" width="110" height="175" rx="8" stroke="white" stroke-width="1" fill="none" opacity="0.1"/>

      <!-- Header -->
      <rect x="10" y="12" width="60" height="6" rx="2" fill="white" opacity="0.5"/>

      <!-- Action cards -->
      <g transform="translate(10, 32)">
        <rect x="0" y="0" width="42" height="42" rx="6" fill="url(#gaamma-grad)" opacity="0.2"/>
        <rect x="0" y="0" width="42" height="42" rx="6" stroke="url(#gaamma-grad)" stroke-width="1" fill="none" opacity="0.3"/>
        <line x1="21" y1="13" x2="21" y2="29" stroke="white" stroke-width="2" opacity="0.7"/>
        <line x1="13" y1="21" x2="29" y2="21" stroke="white" stroke-width="2" opacity="0.7"/>
        <rect x="8" y="34" width="26" height="3" rx="1" fill="white" opacity="0.3"/>

        <g transform="translate(48, 0)">
          <rect x="0" y="0" width="42" height="42" rx="6" fill="white" opacity="0.08"/>
          <rect x="0" y="0" width="42" height="42" rx="6" stroke="white" stroke-width="1" fill="none" opacity="0.15"/>
          <circle cx="15" cy="17" r="6" stroke="white" stroke-width="1.5" fill="none" opacity="0.5"/>
          <circle cx="27" cy="17" r="6" stroke="white" stroke-width="1.5" fill="none" opacity="0.5"/>
          <line x1="21" y1="11" x2="25" y2="7" stroke="white" stroke-width="1.5" opacity="0.5"/>
          <rect x="8" y="34" width="26" height="3" rx="1" fill="white" opacity="0.25"/>
        </g>
      </g>

      <g transform="translate(10, 88)">
        <rect x="0" y="0" width="42" height="42" rx="6" fill="white" opacity="0.06"/>
        <rect x="0" y="0" width="42" height="42" rx="6" stroke="white" stroke-width="1" fill="none" opacity="0.12"/>
        <rect x="11" y="11" width="20" height="16" rx="2" stroke="white" stroke-width="1.5" fill="none" opacity="0.45"/>
        <rect x="14" y="16" width="6" height="4" rx="1" fill="white" opacity="0.4"/>
        <rect x="22" y="16" width="6" height="4" rx="1" fill="white" opacity="0.4"/>
        <rect x="8" y="34" width="26" height="3" rx="1" fill="white" opacity="0.2"/>

        <g transform="translate(48, 0)">
          <rect x="0" y="0" width="42" height="42" rx="6" fill="white" opacity="0.05"/>
          <rect x="0" y="0" width="42" height="42" rx="6" stroke="white" stroke-width="1" fill="none" opacity="0.1"/>
          <rect x="11" y="10" width="20" height="18" rx="2" stroke="white" stroke-width="1.5" fill="none" opacity="0.4"/>
          <rect x="15" y="14" width="12" height="2" rx="1" fill="white" opacity="0.35"/>
          <rect x="15" y="18" width="10" height="2" rx="1" fill="white" opacity="0.3"/>
          <rect x="15" y="22" width="8" height="2" rx="1" fill="white" opacity="0.25"/>
          <rect x="8" y="34" width="26" height="3" rx="1" fill="white" opacity="0.18"/>
        </g>
      </g>
    </g>
  </g>

  <!-- Floating decorative elements -->
  <circle cx="50" cy="80" r="4" fill="url(#gaamma-grad)" opacity="0.3"/>
  <circle cx="560" cy="350" r="6" fill="white" opacity="0.1"/>
  <circle cx="540" cy="60" r="5" fill="url(#gaamma-grad)" opacity="0.25"/>
</svg>
