<svg xmlns="http://www.w3.org/2000/svg" xmlns:xlink="http://www.w3.org/1999/xlink" width="6571" zoomAndPan="magnify" viewBox="0 0 4928.25 675.000002" height="900" preserveAspectRatio="xMidYMid meet" version="1.0"><defs><g/><clipPath id="58eeadd7e2"><path d="M 761 0 L 4924.230469 0 L 4924.230469 674 L 761 674 Z M 761 0 " clip-rule="nonzero"/></clipPath><clipPath id="fd607f1a21"><rect x="0" width="4164" y="0" height="674"/></clipPath><clipPath id="daf16cdfd5"><path d="M 3.269531 37.007812 L 583.863281 37.007812 L 583.863281 622 L 3.269531 622 Z M 3.269531 37.007812 " clip-rule="nonzero"/></clipPath><clipPath id="47d7a3fb5f"><path d="M 293.566406 37.007812 C 453.890625 37.007812 583.863281 166.976562 583.863281 327.304688 L 583.863281 331.335938 C 583.863281 491.660156 453.890625 621.628906 293.566406 621.628906 C 133.242188 621.628906 3.269531 491.660156 3.269531 331.335938 L 3.269531 327.304688 C 3.269531 166.976562 133.242188 37.007812 293.566406 37.007812 Z M 293.566406 37.007812 " clip-rule="nonzero"/></clipPath><clipPath id="088a8f95a5"><path d="M 0.269531 0.0078125 L 580.863281 0.0078125 L 580.863281 584.640625 L 0.269531 584.640625 Z M 0.269531 0.0078125 " clip-rule="nonzero"/></clipPath><clipPath id="b19b2e6228"><path d="M 290.566406 0.0078125 C 450.890625 0.0078125 580.863281 129.976562 580.863281 290.304688 L 580.863281 294.335938 C 580.863281 454.660156 450.890625 584.628906 290.566406 584.628906 C 130.242188 584.628906 0.269531 454.660156 0.269531 294.335938 L 0.269531 290.304688 C 0.269531 129.976562 130.242188 0.0078125 290.566406 0.0078125 Z M 290.566406 0.0078125 " clip-rule="nonzero"/></clipPath><clipPath id="d8604f7fed"><rect x="0" width="581" y="0" height="585"/></clipPath><clipPath id="c63cb84ac7"><path d="M 35 261 L 552 261 L 552 398 L 35 398 Z M 35 261 " clip-rule="nonzero"/></clipPath><clipPath id="c60ef7247c"><path d="M 196.40625 73.648438 L 562.324219 278.542969 L 390.726562 585 L 24.808594 380.105469 Z M 196.40625 73.648438 " clip-rule="nonzero"/></clipPath><clipPath id="c90c984cc7"><path d="M 196.40625 73.648438 L 562.324219 278.542969 L 390.726562 585 L 24.808594 380.105469 Z M 196.40625 73.648438 " clip-rule="nonzero"/></clipPath></defs><g clip-path="url(#58eeadd7e2)"><g transform="matrix(1, 0, 0, 1, 761, -0.000000000000005375)"><g clip-path="url(#fd607f1a21)"><g fill="#000000" fill-opacity="1"><g transform="translate(0.816152, 557.947108)"><g><path d="M 22.390625 0 L 22.390625 -69.875 L 194.046875 -264.609375 L 24.421875 -264.609375 L 24.421875 -336.515625 L 293.09375 -336.515625 L 293.09375 -266.640625 L 118.734375 -71.921875 L 296.484375 -71.921875 L 296.484375 0 Z M 22.390625 0 "/></g></g></g><g fill="#000000" fill-opacity="1"><g transform="translate(325.802898, 557.947108)"><g><path d="M 170.296875 8.140625 C 128.234375 8.140625 95.78125 -4.972656 72.9375 -31.203125 C 50.09375 -57.441406 38.671875 -95.890625 38.671875 -146.546875 L 38.671875 -336.515625 L 124.84375 -336.515625 L 124.84375 -154.6875 C 124.84375 -125.738281 130.722656 -103.578125 142.484375 -88.203125 C 154.242188 -72.828125 172.785156 -65.140625 198.109375 -65.140625 C 222.085938 -65.140625 241.878906 -73.734375 257.484375 -90.921875 C 273.085938 -108.109375 280.890625 -132.078125 280.890625 -162.828125 L 280.890625 -336.515625 L 367.734375 -336.515625 L 367.734375 0 L 291.0625 0 L 284.28125 -56.984375 C 273.875 -37.085938 258.832031 -21.257812 239.15625 -9.5 C 219.476562 2.257812 196.523438 8.140625 170.296875 8.140625 Z M 170.296875 8.140625 "/></g></g></g><g fill="#000000" fill-opacity="1"><g transform="translate(738.312257, 557.947108)"><g><path d="M 44.09375 0 L 44.09375 -336.515625 L 120.765625 -336.515625 L 127.546875 -279.53125 C 137.953125 -299.425781 152.992188 -315.253906 172.671875 -327.015625 C 192.347656 -338.773438 215.53125 -344.65625 242.21875 -344.65625 C 283.820312 -344.65625 316.160156 -331.535156 339.234375 -305.296875 C 362.304688 -279.066406 373.84375 -240.625 373.84375 -189.96875 L 373.84375 0 L 287 0 L 287 -181.828125 C 287 -210.773438 281.117188 -232.9375 269.359375 -248.3125 C 257.597656 -263.695312 239.273438 -271.390625 214.390625 -271.390625 C 189.972656 -271.390625 169.957031 -262.796875 154.34375 -245.609375 C 138.738281 -228.421875 130.9375 -204.445312 130.9375 -173.6875 L 130.9375 0 Z M 44.09375 0 "/></g></g></g><g fill="#000000" fill-opacity="1"><g transform="translate(1150.821616, 557.947108)"><g><path d="M 44.09375 0 L 44.09375 -488.5 L 130.9375 -488.5 L 130.9375 -200.140625 L 250.359375 -336.515625 L 353.484375 -336.515625 L 215.75 -183.1875 L 375.875 0 L 267.3125 0 L 130.9375 -168.9375 L 130.9375 0 Z M 44.09375 0 "/></g></g></g><g fill="#000000" fill-opacity="1"><g transform="translate(1536.192243, 557.947108)"><g><path d="M 90.921875 -388.765625 C 75.085938 -388.765625 62.082031 -393.515625 51.90625 -403.015625 C 41.726562 -412.515625 36.640625 -424.5 36.640625 -438.96875 C 36.640625 -453.445312 41.726562 -465.320312 51.90625 -474.59375 C 62.082031 -483.863281 75.085938 -488.5 90.921875 -488.5 C 106.742188 -488.5 119.742188 -483.863281 129.921875 -474.59375 C 140.097656 -465.320312 145.1875 -453.445312 145.1875 -438.96875 C 145.1875 -424.5 140.097656 -412.515625 129.921875 -403.015625 C 119.742188 -393.515625 106.742188 -388.765625 90.921875 -388.765625 Z M 47.5 0 L 47.5 -336.515625 L 134.34375 -336.515625 L 134.34375 0 Z M 47.5 0 "/></g></g></g><g fill="#000000" fill-opacity="1"><g transform="translate(1717.34341, 557.947108)"><g><path d="M 44.09375 0 L 44.09375 -336.515625 L 121.453125 -336.515625 L 129.59375 -273.421875 C 141.800781 -295.128906 158.421875 -312.425781 179.453125 -325.3125 C 200.484375 -338.207031 225.25 -344.65625 253.75 -344.65625 L 253.75 -253.0625 L 229.328125 -253.0625 C 210.328125 -253.0625 193.363281 -250.117188 178.4375 -244.234375 C 163.507812 -238.359375 151.859375 -228.179688 143.484375 -213.703125 C 135.117188 -199.234375 130.9375 -179.109375 130.9375 -153.328125 L 130.9375 0 Z M 44.09375 0 "/></g></g></g><g fill="#000000" fill-opacity="1"><g transform="translate(1986.017335, 557.947108)"><g><path d="M 207.609375 8.140625 C 173.679688 8.140625 143.601562 0.90625 117.375 -13.5625 C 91.144531 -28.039062 70.566406 -48.394531 55.640625 -74.625 C 40.710938 -100.863281 33.25 -131.171875 33.25 -165.546875 C 33.25 -200.367188 40.597656 -231.347656 55.296875 -258.484375 C 69.992188 -285.628906 90.347656 -306.773438 116.359375 -321.921875 C 142.367188 -337.078125 173.015625 -344.65625 208.296875 -344.65625 C 241.304688 -344.65625 270.476562 -337.414062 295.8125 -322.9375 C 321.144531 -308.46875 340.929688 -288.679688 355.171875 -263.578125 C 369.421875 -238.484375 376.546875 -210.554688 376.546875 -179.796875 C 376.546875 -174.816406 376.429688 -169.613281 376.203125 -164.1875 C 375.984375 -158.757812 375.644531 -153.109375 375.1875 -147.234375 L 119.40625 -147.234375 C 121.21875 -120.992188 130.378906 -100.410156 146.890625 -85.484375 C 163.398438 -70.554688 183.414062 -63.09375 206.9375 -63.09375 C 224.570312 -63.09375 239.382812 -67.050781 251.375 -74.96875 C 263.363281 -82.882812 272.296875 -93.175781 278.171875 -105.84375 L 366.375 -105.84375 C 360.039062 -84.582031 349.523438 -65.242188 334.828125 -47.828125 C 320.128906 -30.421875 302.035156 -16.738281 280.546875 -6.78125 C 259.054688 3.164062 234.742188 8.140625 207.609375 8.140625 Z M 208.296875 -274.09375 C 187.035156 -274.09375 168.257812 -268.097656 151.96875 -256.109375 C 135.6875 -244.128906 125.285156 -225.925781 120.765625 -201.5 L 288.34375 -201.5 C 286.988281 -223.664062 278.847656 -241.304688 263.921875 -254.421875 C 248.992188 -267.535156 230.453125 -274.09375 208.296875 -274.09375 Z M 208.296875 -274.09375 "/></g></g></g><g fill="#000000" fill-opacity="1"><g transform="translate(2391.741952, 557.947108)"><g><path d="M 207.609375 8.140625 C 173.679688 8.140625 143.601562 0.90625 117.375 -13.5625 C 91.144531 -28.039062 70.566406 -48.394531 55.640625 -74.625 C 40.710938 -100.863281 33.25 -131.171875 33.25 -165.546875 C 33.25 -200.367188 40.597656 -231.347656 55.296875 -258.484375 C 69.992188 -285.628906 90.347656 -306.773438 116.359375 -321.921875 C 142.367188 -337.078125 173.015625 -344.65625 208.296875 -344.65625 C 241.304688 -344.65625 270.476562 -337.414062 295.8125 -322.9375 C 321.144531 -308.46875 340.929688 -288.679688 355.171875 -263.578125 C 369.421875 -238.484375 376.546875 -210.554688 376.546875 -179.796875 C 376.546875 -174.816406 376.429688 -169.613281 376.203125 -164.1875 C 375.984375 -158.757812 375.644531 -153.109375 375.1875 -147.234375 L 119.40625 -147.234375 C 121.21875 -120.992188 130.378906 -100.410156 146.890625 -85.484375 C 163.398438 -70.554688 183.414062 -63.09375 206.9375 -63.09375 C 224.570312 -63.09375 239.382812 -67.050781 251.375 -74.96875 C 263.363281 -82.882812 272.296875 -93.175781 278.171875 -105.84375 L 366.375 -105.84375 C 360.039062 -84.582031 349.523438 -65.242188 334.828125 -47.828125 C 320.128906 -30.421875 302.035156 -16.738281 280.546875 -6.78125 C 259.054688 3.164062 234.742188 8.140625 207.609375 8.140625 Z M 208.296875 -274.09375 C 187.035156 -274.09375 168.257812 -268.097656 151.96875 -256.109375 C 135.6875 -244.128906 125.285156 -225.925781 120.765625 -201.5 L 288.34375 -201.5 C 286.988281 -223.664062 278.847656 -241.304688 263.921875 -254.421875 C 248.992188 -267.535156 230.453125 -274.09375 208.296875 -274.09375 Z M 208.296875 -274.09375 "/></g></g></g><g fill="#000000" fill-opacity="1"><g transform="translate(2797.46676, 557.947108)"><g><path d="M 44.09375 0 L 44.09375 -488.5 L 130.9375 -488.5 L 130.9375 0 Z M 44.09375 0 "/></g></g></g><g fill="#000000" fill-opacity="1"><g transform="translate(2973.190195, 557.947108)"><g><path d="M 160.125 8.140625 C 131.175781 8.140625 107.425781 3.503906 88.875 -5.765625 C 70.332031 -15.035156 56.535156 -27.359375 47.484375 -42.734375 C 38.441406 -58.117188 33.921875 -75.082031 33.921875 -93.625 C 33.921875 -124.832031 46.132812 -150.160156 70.5625 -169.609375 C 94.988281 -189.066406 131.625 -198.796875 180.46875 -198.796875 L 265.953125 -198.796875 L 265.953125 -206.9375 C 265.953125 -230 259.394531 -246.957031 246.28125 -257.8125 C 233.164062 -268.664062 216.882812 -274.09375 197.4375 -274.09375 C 179.789062 -274.09375 164.410156 -269.910156 151.296875 -261.546875 C 138.179688 -253.179688 130.039062 -240.859375 126.875 -224.578125 L 42.0625 -224.578125 C 44.320312 -248.992188 52.578125 -270.25 66.828125 -288.34375 C 81.078125 -306.4375 99.507812 -320.34375 122.125 -330.0625 C 144.738281 -339.789062 170.066406 -344.65625 198.109375 -344.65625 C 246.054688 -344.65625 283.820312 -332.671875 311.40625 -308.703125 C 339 -284.734375 352.796875 -250.8125 352.796875 -206.9375 L 352.796875 0 L 278.84375 0 L 270.703125 -54.28125 C 260.753906 -36.1875 246.847656 -21.257812 228.984375 -9.5 C 211.117188 2.257812 188.164062 8.140625 160.125 8.140625 Z M 179.796875 -59.703125 C 204.671875 -59.703125 224.003906 -67.84375 237.796875 -84.125 C 251.597656 -100.414062 260.304688 -120.546875 263.921875 -144.515625 L 189.96875 -144.515625 C 166.90625 -144.515625 150.394531 -140.328125 140.4375 -131.953125 C 130.488281 -123.585938 125.515625 -113.300781 125.515625 -101.09375 C 125.515625 -87.976562 130.488281 -77.800781 140.4375 -70.5625 C 150.394531 -63.320312 163.515625 -59.703125 179.796875 -59.703125 Z M 179.796875 -59.703125 "/></g></g></g><g fill="#000000" fill-opacity="1"><g transform="translate(3364.666941, 557.947108)"><g><path d="M 243.5625 8.140625 C 218.238281 8.140625 196.078125 3.390625 177.078125 -6.109375 C 158.078125 -15.609375 142.695312 -28.953125 130.9375 -46.140625 L 121.453125 0 L 44.09375 0 L 44.09375 -488.5 L 130.9375 -488.5 L 130.9375 -288.34375 C 141.800781 -303.269531 156.164062 -316.382812 174.03125 -327.6875 C 191.894531 -339 215.070312 -344.65625 243.5625 -344.65625 C 275.226562 -344.65625 303.5 -336.96875 328.375 -321.59375 C 353.25 -306.21875 372.921875 -285.1875 387.390625 -258.5 C 401.867188 -231.8125 409.109375 -201.503906 409.109375 -167.578125 C 409.109375 -133.660156 401.867188 -103.46875 387.390625 -77 C 372.921875 -50.539062 353.25 -29.734375 328.375 -14.578125 C 303.5 0.566406 275.226562 8.140625 243.5625 8.140625 Z M 225.25 -67.84375 C 252.84375 -67.84375 275.6875 -77.113281 293.78125 -95.65625 C 311.875 -114.207031 320.921875 -138.179688 320.921875 -167.578125 C 320.921875 -196.984375 311.875 -221.179688 293.78125 -240.171875 C 275.6875 -259.171875 252.84375 -268.671875 225.25 -268.671875 C 197.207031 -268.671875 174.253906 -259.285156 156.390625 -240.515625 C 138.523438 -221.742188 129.59375 -197.660156 129.59375 -168.265625 C 129.59375 -138.859375 138.523438 -114.769531 156.390625 -96 C 174.253906 -77.226562 197.207031 -67.84375 225.25 -67.84375 Z M 225.25 -67.84375 "/></g></g></g><g fill="#000000" fill-opacity="1"><g transform="translate(3807.028859, 557.947108)"><g><path d="M 183.1875 8.140625 C 153.332031 8.140625 127.097656 3.28125 104.484375 -6.4375 C 81.867188 -16.164062 63.773438 -29.625 50.203125 -46.8125 C 36.640625 -64 28.5 -83.898438 25.78125 -106.515625 L 113.296875 -106.515625 C 116.015625 -93.398438 123.363281 -82.207031 135.34375 -72.9375 C 147.332031 -63.664062 162.828125 -59.03125 181.828125 -59.03125 C 200.828125 -59.03125 214.734375 -62.875 223.546875 -70.5625 C 232.367188 -78.25 236.78125 -87.066406 236.78125 -97.015625 C 236.78125 -111.492188 230.445312 -121.332031 217.78125 -126.53125 C 205.125 -131.738281 187.488281 -136.828125 164.875 -141.796875 C 150.394531 -144.960938 135.691406 -148.804688 120.765625 -153.328125 C 105.835938 -157.859375 92.15625 -163.628906 79.71875 -170.640625 C 67.28125 -177.648438 57.21875 -186.691406 49.53125 -197.765625 C 41.84375 -208.847656 38 -222.535156 38 -238.828125 C 38 -268.671875 49.867188 -293.769531 73.609375 -314.125 C 97.359375 -334.476562 130.71875 -344.65625 173.6875 -344.65625 C 213.488281 -344.65625 245.257812 -335.382812 269 -316.84375 C 292.75 -298.300781 306.890625 -272.742188 311.421875 -240.171875 L 229.328125 -240.171875 C 224.347656 -265.054688 205.578125 -277.5 173.015625 -277.5 C 156.722656 -277.5 144.164062 -274.332031 135.34375 -268 C 126.53125 -261.664062 122.125 -253.75 122.125 -244.25 C 122.125 -234.300781 128.679688 -226.382812 141.796875 -220.5 C 154.910156 -214.625 172.328125 -209.195312 194.046875 -204.21875 C 217.566406 -198.789062 239.160156 -192.796875 258.828125 -186.234375 C 278.503906 -179.679688 294.222656 -169.957031 305.984375 -157.0625 C 317.742188 -144.175781 323.625 -125.742188 323.625 -101.765625 C 324.082031 -80.960938 318.65625 -62.191406 307.34375 -45.453125 C 296.039062 -28.722656 279.757812 -15.609375 258.5 -6.109375 C 237.238281 3.390625 212.132812 8.140625 183.1875 8.140625 Z M 183.1875 8.140625 "/></g></g></g></g></g></g><g clip-path="url(#daf16cdfd5)"><g clip-path="url(#47d7a3fb5f)"><g transform="matrix(1, 0, 0, 1, 3, 37)"><g clip-path="url(#d8604f7fed)"><g clip-path="url(#088a8f95a5)"><g clip-path="url(#b19b2e6228)"><path fill="#eb1600" d="M 0.269531 0.0078125 L 580.863281 0.0078125 L 580.863281 585.132812 L 0.269531 585.132812 Z M 0.269531 0.0078125 " fill-opacity="1" fill-rule="nonzero"/></g></g></g></g></g></g><g clip-path="url(#c63cb84ac7)"><g clip-path="url(#c60ef7247c)"><g clip-path="url(#c90c984cc7)"><path fill="#ffffff" d="M 537.527344 264.660156 C 523.9375 257.050781 506.585938 261.945312 498.976562 275.535156 C 495.214844 282.25 494.503906 289.886719 496.394531 296.8125 L 384.898438 350.636719 C 382.664062 347.78125 379.945312 345.226562 376.601562 343.351562 C 364.707031 336.691406 349.882812 339.605469 341.277344 349.542969 L 251.382812 299.207031 C 255.359375 286.675781 250.09375 272.515625 238.203125 265.855469 C 224.613281 258.246094 207.261719 263.140625 199.652344 276.730469 C 195.890625 283.449219 195.183594 291.085938 197.070312 298.011719 L 85.574219 351.832031 C 83.339844 348.980469 80.621094 346.421875 77.277344 344.550781 C 63.6875 336.9375 46.335938 341.832031 38.726562 355.425781 C 31.117188 369.015625 36.011719 386.367188 49.601562 393.976562 C 63.191406 401.585938 80.542969 396.691406 88.152344 383.101562 C 91.914062 376.382812 92.625 368.75 90.734375 361.824219 L 201.988281 308.066406 C 204.242188 310.976562 207.128906 313.382812 210.527344 315.285156 C 222.472656 321.972656 237.261719 319.132812 245.847656 309.09375 L 335.742188 359.429688 C 331.667969 372 336.980469 386.089844 348.921875 392.777344 C 362.511719 400.386719 379.867188 395.492188 387.476562 381.902344 C 391.238281 375.183594 391.945312 367.550781 390.054688 360.625 L 501.3125 306.871094 C 503.5625 309.78125 506.453125 312.183594 509.851562 314.085938 C 523.441406 321.695312 540.792969 316.800781 548.402344 303.210938 C 556.011719 289.621094 551.117188 272.269531 537.527344 264.660156 Z M 531.992188 274.542969 C 540.238281 279.164062 543.136719 289.425781 538.515625 297.675781 C 533.898438 305.921875 523.632812 308.820312 515.386719 304.199219 C 507.136719 299.582031 504.242188 289.316406 508.859375 281.070312 C 513.480469 272.820312 523.742188 269.925781 531.992188 274.542969 Z M 232.667969 275.742188 C 240.917969 280.359375 243.8125 290.625 239.195312 298.875 C 234.574219 307.121094 224.3125 310.015625 216.0625 305.398438 C 207.816406 300.78125 204.917969 290.515625 209.539062 282.265625 C 214.15625 274.019531 224.421875 271.125 232.667969 275.742188 Z M 371.0625 353.238281 C 379.3125 357.855469 382.207031 368.121094 377.589844 376.367188 C 372.972656 384.613281 362.707031 387.511719 354.457031 382.894531 C 346.210938 378.273438 343.316406 368.007812 347.933594 359.761719 C 352.550781 351.511719 362.816406 348.617188 371.0625 353.238281 Z M 71.742188 354.433594 C 79.988281 359.054688 82.886719 369.316406 78.265625 377.566406 C 73.648438 385.8125 63.382812 388.710938 55.136719 384.089844 C 46.886719 379.472656 43.992188 369.207031 48.609375 360.960938 C 53.230469 352.710938 63.492188 349.816406 71.742188 354.433594 Z M 71.742188 354.433594 " fill-opacity="1" fill-rule="nonzero"/></g></g></g></svg>