<svg xmlns="http://www.w3.org/2000/svg" viewBox="0 0 640 360" width="640" height="360" role="img" aria-hidden="true">
  <rect width="640" height="360" fill="#141F24"/>
  <circle cx="110" cy="112" r="34" fill="#E3EAEC" opacity="0.10"/>
  <path d="M122 92 a24 24 0 1 0 0 40 a30 30 0 0 1 0 -40 Z" fill="#E3EAEC" opacity="0.5"/>
  <rect x="60" y="164" width="212" height="136" rx="14" fill="#1E2E35" stroke="#2C4048" stroke-width="1.5"/>
  <circle cx="84" cy="190" r="4" fill="#9BD600" opacity="1"/>
  <rect x="100" y="186" width="140" height="7" rx="3" fill="#8FA9B3" opacity="0.5"/>
  <circle cx="84" cy="218" r="4" fill="#9BD600" opacity="1"/>
  <rect x="100" y="214" width="122" height="7" rx="3" fill="#8FA9B3" opacity="0.5"/>
  <circle cx="84" cy="246" r="4" fill="#9BD600" opacity="1"/>
  <rect x="100" y="242" width="104" height="7" rx="3" fill="#8FA9B3" opacity="0.5"/>
  <circle cx="84" cy="274" r="4" fill="#8FA9B3" opacity="0.4"/>
  <rect x="100" y="270" width="86" height="7" rx="3" fill="#8FA9B3" opacity="0.5"/>
  <path d="M286 232 C319.0 232 319.0 232 342 232" stroke="#9BD600" stroke-width="2.5" fill="none" stroke-linecap="round"/>
  <path d="M340 227 L350 232 L340 237 Z" fill="#9BD600"/>
  <rect x="362" y="150" width="234" height="164" rx="14" fill="#1E2E35" stroke="#2C4048" stroke-width="1.5"/>
  <rect x="386" y="174" width="104" height="7" rx="3" fill="#E3EAEC" opacity="0.75"/>
  <rect x="386" y="200" width="186" height="7" rx="3" fill="#8FA9B3" opacity="0.45"/>
  <rect x="386" y="224" width="150" height="7" rx="3" fill="#8FA9B3" opacity="0.45"/>
  <rect x="386" y="248" width="168" height="7" rx="3" fill="#8FA9B3" opacity="0.45"/>
  <circle cx="566" cy="178" r="14" fill="#9BD600"/>
  <path d="M560 178 L564.5 182.5 L572.5 174" stroke="#141F24" stroke-width="2.4" fill="none" stroke-linecap="round" stroke-linejoin="round"/>
</svg>
